<svg xmlns="http://www.w3.org/2000/svg" viewBox="957 -1492 49.718 50">
  <path id="Subtraction_3" data-name="Subtraction 3" d="M27.877,50H23.734a.78.78,0,0,1-.152-.018L1.624,45.518a.878.878,0,0,1-.677-.878V6.251a.866.866,0,0,1,.819-.893.92.92,0,0,1,.166.021L5.09,6.02V2.679a.868.868,0,0,1,.819-.894.79.79,0,0,1,.324.067L10.061,3.54V.89a.866.866,0,0,1,.8-.89.821.821,0,0,1,.476.137L25.639,9.824h.341L40.279.14A.785.785,0,0,1,40.7,0a.81.81,0,0,1,.6.253.934.934,0,0,1,.25.64V3.541l3.83-1.688a.8.8,0,0,1,.292-.067.811.811,0,0,1,.6.254.926.926,0,0,1,.25.64V6.021l3.163-.643a.767.767,0,0,1,.153-.016.791.791,0,0,1,.527.205.919.919,0,0,1,.3.685v38.39a.879.879,0,0,1-.673.875L28.032,49.981A.817.817,0,0,1,27.877,50ZM24.148,11.61V48.222h3.315v-8.5a.865.865,0,0,1,.815-.9.808.808,0,0,1,.6.259.926.926,0,0,1,.244.644v8.23l19.887-4.042V7.339L29.12,11.372V33.491a.831.831,0,1,1-1.657,0V11.611H26.334a.751.751,0,0,1-.269,0h-.537a.8.8,0,0,1-.114.008.79.79,0,0,1-.113-.008H24.148ZM2.6,7.328V43.912l19.886,4.043V11.372L2.6,7.328Zm42.26-3.32-9.889,4.36,9.889-2.01V4.008Zm-38.116,0V6.357l9.887,2.009Zm4.972-1.5V4.271l7.465,3.29Zm28.173.006L32.45,7.551l7.442-3.28V2.511ZM28.292,37.5a.9.9,0,1,1,.829-.893A.863.863,0,0,1,28.292,37.5Zm11.453-9.949a.849.849,0,0,1-.814-.73.893.893,0,0,1,.663-1.043l5.946-1.207a.8.8,0,0,1,.139-.017.853.853,0,0,1,.846.8.887.887,0,0,1-.678.969L39.9,27.535A.745.745,0,0,1,39.745,27.551ZM33.8,25.186a.8.8,0,0,1-.528-.205.922.922,0,0,1-.3-.686V17.153a.88.88,0,0,1,.673-.879l11.9-2.417a.775.775,0,0,1,.13-.018.811.811,0,0,1,.6.254.931.931,0,0,1,.251.64v7.142a.882.882,0,0,1-.673.879l-11.9,2.417A.733.733,0,0,1,33.8,25.186Zm11.064-9.376L34.628,17.892v5.325l10.235-2.083V15.809Z" transform="translate(956.053 -1492)"/>
</svg>
