<svg xmlns="http://www.w3.org/2000/svg" viewBox="547 -1492 65.49 50">
  <path id="Subtraction_5" data-name="Subtraction 5" d="M63.526,50H52.393c-.993,0-1.965-1.478-1.965-2.581V2.668c0-1.1.971-2.581,1.965-2.581H63.526c.993,0,1.965,1.478,1.965,2.581V47.418C65.49,48.521,64.519,50,63.526,50ZM51.738,45.7l0,1.707c.026.267.417.875.656.875H63.526c.238,0,.629-.607.656-.875V45.7Zm.654-43.889c-.239,0-.63.607-.656.875V4.389H64.181V2.682c-.027-.267-.418-.875-.656-.875H52.393ZM30.256,50H15.587c-.167,0-.289-.145-.327-.387-.052-.326.068-.732.327-.817,1.606-.528,2.291-1.97,2.291-4.82H27.965c0,2.851.685,4.292,2.291,4.82.26.085.379.491.327.817C30.545,49.855,30.423,50,30.256,50ZM44.7,41.567H1.146A1.365,1.365,0,0,1,0,40.06L.008,1.392A1.336,1.336,0,0,1,1.146,0H44.7a1.336,1.336,0,0,1,1.138,1.392l.008,38.668A1.365,1.365,0,0,1,44.7,41.567ZM1.965,2.668v31.67H43.879V2.668Z" transform="translate(547 -1492)"/>
</svg>
