<svg xmlns="http://www.w3.org/2000/svg" viewBox="743 -1492 83.751 50">
  <path id="Subtraction_4" data-name="Subtraction 4" d="M19.073,50a16.529,16.529,0,0,1,0-33.058,16.256,16.256,0,0,1,6.693,1.444L30.4,9.47,29.654,5.7a.918.918,0,0,1,.108-.621h-4.64a.93.93,0,0,1,0-1.859H37.538a.93.93,0,0,1,0,1.859H31.366a.879.879,0,0,1,.108.261l.657,3.339H63.657l-1.035-4.9-5.91-1.97A.93.93,0,0,1,57,0,.919.919,0,0,1,57.3.048L63.71,2.187l.092.052a.762.762,0,0,1,.294.217.888.888,0,0,1,.109.142.832.832,0,0,1,.075.172l.046.105,3.02,14.276a16.31,16.31,0,0,1,2.5-.211,16.567,16.567,0,1,1-4.317.594l-.4-1.893L40.64,33.888a4.509,4.509,0,0,1,.433,1.913,4.565,4.565,0,0,1-4.555,4.566,4.488,4.488,0,0,1-1.869-.413l-.4-.135A16.425,16.425,0,0,1,19.073,50ZM65.915,19.352a14.593,14.593,0,1,0,3.933-.551,14.388,14.388,0,0,0-2.119.171l3.026,14.306a.931.931,0,0,1-.715,1.1.963.963,0,0,1-.194.02.931.931,0,0,1-.906-.738L65.914,19.352h0ZM19.074,18.8A14.671,14.671,0,1,0,32.492,39.218l-14.258-4.87a.931.931,0,0,1-.579-1.179.921.921,0,0,1,.753-.614l6.5-12.526A14.446,14.446,0,0,0,19.074,18.8ZM35.121,33.5a2.7,2.7,0,1,0,4.1,2.3,2.653,2.653,0,0,0-.121-.761l-2.025,1.508-.1.051a.939.939,0,0,1-.231.1.748.748,0,0,1-.219.034.9.9,0,0,1-.372-.085l-.093-.052a.92.92,0,0,1-.232-.194l-.068-.078a.848.848,0,0,1-.1-.212L35.617,36l-.5-2.5Zm-2.429-.155-9.809.633,9.308,3.179a4.489,4.489,0,0,1-.228-1.352,4.554,4.554,0,0,1,.729-2.46Zm4.248-.208.2,1.043L38,33.539a2.67,2.67,0,0,0-1.058-.4h0ZM32.5,10.539l4.071,20.7A4.532,4.532,0,0,1,39.528,32.4L64.707,13.641l-.657-3.1ZM26.559,20.887l-5.9,11.367,12.887-.832a14.614,14.614,0,0,0-6.985-10.535h0Zm4.412-8.5-3.557,6.849A16.578,16.578,0,0,1,33.588,25.7Z" transform="translate(740.414 -1492)"/>
</svg>
