<svg xmlns="http://www.w3.org/2000/svg" viewBox="1137 -1492 49.999 50">
  <path id="Subtraction_2" data-name="Subtraction 2" d="M27.783,50H10.269a4.3,4.3,0,0,1-2.857-1A19.677,19.677,0,0,1,.015,33.81V23.833c0-.208-.007-.41-.014-.618A2.053,2.053,0,0,1,.672,21.6a2.418,2.418,0,0,1,1.72-.669H35.659a2.4,2.4,0,0,1,1.712.669,2.048,2.048,0,0,1,.671,1.6c-.007.164-.007.334-.007.5a18.2,18.2,0,0,1,2.51-.182c5.3,0,9,2.664,9.419,6.786.478,4.709-3.838,10.767-14.442,12.941A20.683,20.683,0,0,1,30.632,49,4.379,4.379,0,0,1,27.783,50ZM6.262,23.8A1.621,1.621,0,0,0,4.577,25.34v7.9A17.337,17.337,0,0,0,5.919,40.01a15.556,15.556,0,0,0,3.864,5.5,1.789,1.789,0,0,0,2.377-.019,1.474,1.474,0,0,0-.021-2.182,12.51,12.51,0,0,1-3.1-4.409,14.548,14.548,0,0,1-1.1-5.656v-7.9A1.618,1.618,0,0,0,6.262,23.8Zm34.668,3.67a14.881,14.881,0,0,0-2.894.322V33.8a18.689,18.689,0,0,1-.712,5.121c4.955-1.273,8.363-5.7,7.989-8.663C45.085,28.459,43.528,27.465,40.93,27.465ZM11.527,16.99a.809.809,0,0,1-.833-.611c-.084-.542-.229-1.135-.382-1.764l-.064-.261c-.63-2.526-1.281-5.139.713-6.685,2.082-1.6,1.211-3.519.37-5.373-.206-.448-.411-.9-.6-1.382A.575.575,0,0,1,10.759.44a.815.815,0,0,1,.524-.4A.976.976,0,0,1,11.54,0a.831.831,0,0,1,.791.489c.15.4.356.858.562,1.3s.462.912.717,1.368C14.634,5,15.693,6.891,13.358,8.691a5.347,5.347,0,0,0-1.472,5.373c.185.753.36,1.464.472,2.131a.618.618,0,0,1-.128.465.878.878,0,0,1-.592.324A.938.938,0,0,1,11.527,16.99Zm14.488-.006a.8.8,0,0,1-.829-.611c-.087-.522-.227-1.1-.372-1.7l-.08-.331c-.635-2.519-1.292-5.124.712-6.679,2.075-1.6,1.205-3.519.364-5.373-.219-.477-.417-.911-.6-1.381a.594.594,0,0,1,.033-.488.8.8,0,0,1,.516-.389A1,1,0,0,1,26.011,0a.829.829,0,0,1,.8.486c.15.4.356.858.562,1.305s.463.914.734,1.4C29.2,5.146,30.335,7.17,28,8.975a4.938,4.938,0,0,0-1.624,5.083c.185.752.359,1.463.473,2.137a.6.6,0,0,1-.122.463.866.866,0,0,1-.6.319A.909.909,0,0,1,26.015,16.984Zm-7.568,0a.8.8,0,0,1-.829-.611c-.089-.534-.234-1.13-.382-1.738l-.07-.287c-.637-2.521-1.3-5.128.712-6.685,2.076-1.6,1.205-3.519.363-5.373l-.134-.3c-.157-.35-.316-.7-.455-1.081a.584.584,0,0,1,.025-.486.79.79,0,0,1,.515-.391A1,1,0,0,1,18.443,0a.831.831,0,0,1,.8.486c.119.319.277.67.436,1.024l.126.281c.164.361.352.729.543,1.1,1.053,2.057,2.143,4.185-.311,6.082-1.295,1-1.77,2.952-1.239,5.083.169.668.36,1.426.48,2.137a.6.6,0,0,1-.122.463.866.866,0,0,1-.6.319A.909.909,0,0,1,18.447,16.984Z" transform="translate(1137 -1492)"/>
</svg>
