<svg xmlns="http://www.w3.org/2000/svg" viewBox="1318 -1492 55.203 50">
  <path id="Subtraction_1" data-name="Subtraction 1" d="M55.393,50H14.653l3.7-3.7h9.259l9.259-7.407h3.7l3.7-7.408,5.556-3.7,3.7-7.407h1.851V50ZM10.949,50H5.394l5.556-11.111L8,30.039l7.5,2.811,1.006,6.039L10.95,50Zm14.815-5.556h-3.7V33.333L7.245,27.778l9.26-18.518,7.407,3.7,5.556,5.556h5.556V16.667h1.851v20.37H35.023V20.74l-7.408,1.481L22.06,16.667l-3.333,9.627,8.888,5.187L25.764,44.444ZM6.283,24.456.19,21.479,8.321,4.841l6.094,2.978L6.284,24.456Zm16.7-15.2a4.63,4.63,0,1,1,4.63-4.63A4.635,4.635,0,0,1,22.986,9.259Z" transform="translate(1317.81 -1492)"/>
</svg>
